# xmcd
#
# Track frame offsets:
# 150
# 18623
# 34455
# 55861
# 69969
# 95185
# 116663
# 137702
# 155889
# 182034
# 194798
# 206594
# 219773
# 234508
# 255941
# 269371
# 296850
# 311216
# 326440
# 341519
#
# Disc length: 4760 seconds
#
#
# Revision: 0
# Processed by: cddbd v1.5.2PL0 Copyright (c) Steve Scherf et al.
# Submitted via: FreeRIP 2.942 
#
DISCID=3d129614
DTITLE=Best Of Country Music
DYEAR=1900
DGENRE=Country
TTITLE0=Alabama - Angels among us
TTITLE1=Conway Twitty - The rose
TTITLE2=Diana Carter - Strawberry wine
TTITLE3=George Strait - You look so good in love
TTITLE4=Kenny Rogers - Butterfly kisses
TTITLE5=Travis Tritt - Tell me I was dreaming
TTITLE6=Garth Brooks - Wrapped up in you
TTITLE7=Hank Williams Jr. - Outdoor lovin' man
TTITLE8=Rednex - Cotton eye Joe (Boots Super Mix)
TTITLE9=Oak Ridge Boys - Bobbie Sue
TTITLE10=Dolly Parton - Jolene
TTITLE11=Kenny Rogers - Ruby, don't take your love to town
TTITLE12=Dolly Parton - Take me home to country roads
TTITLE13=Merle Haggard and Willie Nelson - Pancho and lefty
TTITLE14=Jamie O'Neal - When i think about angels
TTITLE15=Maranatha Music - I Could sing of your love forever
TTITLE16=Jo Dee Messina - I'm alright back
TTITLE17=Garth Brooks - Unanswered prayers
TTITLE18=James Taylor - Country road
TTITLE19=Kenny Rogers - The gambler
EXTD=
EXTT0=
EXTT1=
EXTT2=
EXTT3=
EXTT4=
EXTT5=
EXTT6=
EXTT7=
EXTT8=
EXTT9=
EXTT10=
EXTT11=
EXTT12=
EXTT13=
EXTT14=
EXTT15=
EXTT16=
EXTT17=
EXTT18=
EXTT19=
PLAYORDER=
